# xmcd
#
# Track frame offsets:
# 150
# 12787
# 26865
#
# Disc length: 583 seconds
#
#
# Revision: 0
# Processed by: cddbd v1.5.2PL0 Copyright (c) Steve Scherf et al.
# Submitted via: Nero 7, 11, 10, 0 
#
DISCID=1a024503
DTITLE=The Juke Joints - The Juke Joints
DYEAR=1998
DGENRE=Blues
TTITLE0=What's Wrong With You
TTITLE1=You Know What's On
TTITLE2=Please Baby Please
EXTD=
EXTT0=What's Wrong With You
EXTT1=You Know What's On
EXTT2=Please Baby Please
PLAYORDER=
